<svg width="79" height="75" viewBox="0 0 79 75" fill="none" xmlns="http://www.w3.org/2000/svg">
<g filter="url(#filter0_d_385_268)">
<path d="M5.6974 49.9156C5.23638 49.7925 4.82512 49.7102 4.5 49.6982V49.6848V49.643V49.6003V49.5566V49.512V49.4664V49.4199V49.3725V49.3241V49.2748V49.2246V49.1734V49.1214V49.0684V49.0146V48.9598V48.9041V48.8476V48.7901V48.7318V48.6726V48.6126V48.5516V48.4898V48.4272V48.3637V48.2993V48.2341V48.168V48.1011V48.0334V47.9648V47.8955V47.8253V47.7542V47.6824V47.6098V47.5363V47.4621V47.3871V47.3112V47.2346V47.1573V47.0791V47.0002V46.9205V46.84V46.7588V46.6768V46.5941V46.5106V46.4264V46.3414V46.2557V46.1693V46.0822V45.9943V45.9058V45.8165V45.7265V45.6358V45.5444V45.4524V45.3596V45.2662V45.172V45.0772V44.9818V44.8856V44.7888V44.6914V44.5933V44.4945V44.3951V44.295V44.1944V44.0931V43.9911V43.8886V43.7854V43.6816V43.5772V43.4722V43.3666V43.2604V43.1536V43.0462V42.9383V42.8297V42.7206V42.6109V42.5007V42.3899V42.2785V42.1666V42.0542V41.9411V41.8276V41.7135V41.5989V41.4838V41.3681V41.252V41.1353V41.0181V40.9004V40.7822V40.6635V40.5444V40.4247V40.3046V40.1839V40.0628V39.9413V39.8193V39.6968V39.5738V39.4505V39.3266V39.2023V39.0776V38.9525V38.8269V38.7009V38.5745V38.4477V38.3204V38.1928V38.0647V37.9363V37.8074V37.6782V37.5486V37.4186V37.2882V37.1575V37.0264V36.8949V36.7631V36.6309V36.4983V36.3655V36.2322V36.0987V35.9648V35.8306V35.6961V35.5612V35.426V35.2906V35.1548V35.0187V34.8823V34.7456V34.6087V34.4714V34.3339V34.1961V34.0581V33.9197V33.7811V33.6423V33.5032V33.3638V33.2243V33.0844V32.9444V32.8041V32.6635V32.5228V32.3818V32.2407V32.0993V31.9577V31.8159V31.6739V31.5318V31.3894V31.2469V31.1042V30.9613V30.8182V30.675V30.5316V30.3881V30.2444V30.1006V29.9566V29.8125V29.6682V29.5238V29.3793V29.2347V29.09V28.9451V28.8002V28.6551V28.51V28.3647V28.2194V28.074V27.9284V27.7829V27.6372V27.4915V27.3457V27.1999V27.054V26.908V26.762V26.616V26.4699V26.3238V26.1777V26.0316V25.8854V25.7392V25.593V25.4468V25.3006V25.1544V25.0082V24.862V24.7159V24.5697V24.4236V24.2775V24.1315V23.9855V23.8395V23.6936V23.5477V23.4019V23.2561V23.1104V22.9648V22.8193V22.6738V22.5284V22.3831V22.2379V22.0928V21.9477V21.8028V21.658V21.5133V21.3688V21.2243V21.08V20.9358V20.7917V20.6478V20.5041V20.3604V20.217V20.0736V19.9305V19.7875V19.6447V19.502V19.3596V19.2173V19.0752V18.9333V18.7916V18.6501V18.5088V18.3677V18.2268V18.0862V17.9458V17.8056V17.6656V17.5259V17.3864V17.2471V17.1081V16.9694V16.8309V16.6927V16.5547V16.417V16.2796V16.1425V16.0057V15.8691V15.7329V15.5969V15.4612V15.3259V15.1909V15.0561V14.9217V14.7876V14.6539V14.5205V14.3874V14.2547V14.1223V13.9902V13.8586V13.7272V13.5963V13.4657V13.3355V13.2056V13.0762V12.9471V12.8184V12.6901V12.5622V12.4348V12.3077V12.181V12.0548V11.9289V11.8035V11.6786V11.554V11.4299V11.3063V11.1831V11.0603V10.938V10.8162V10.6948V10.5739V10.4535V10.3336V10.2141V10.0951V9.97666V9.85867V9.74119V9.62421V9.50773V9.39178V9.27634V9.16142V9.04703V8.93317V8.81985V8.70707V8.59483V8.48315V8.37201V8.26144V8.15142V8.04197V7.9331V7.8248V7.71708V7.60994V7.50339V7.39744V7.29208V7.18733V7.08318V6.97964V6.87672V6.77441V6.67273V6.57168V6.47127V6.37149V6.27235V6.17385V6.07601V5.97882V5.88229V5.78643V5.69123V5.59671V5.50286V5.40969V5.31721V5.22542V5.13432V5.04392V4.95423V4.86524V4.77697V4.68941V4.60257V4.51646V4.43108V4.34643V4.26252V4.17935V4.09693V4.01526V3.93435V3.8542V3.77481V3.69619V3.61835V3.54128V3.465V3.3895V3.31479V3.24089V3.16778V3.09547V3.02397V2.95329V2.88343V2.81438V2.74617V2.67878V2.61223V2.54652V2.48165V2.41764V2.35447V2.29216V2.23072V2.17014V2.11043V2.05159V1.99364V1.93657V1.88039V1.8251V1.7707V1.71721V1.66462V1.61295V1.56219V1.51234V1.46343V1.41543V1.36838V1.32225V1.27707V1.23284V1.18955V1.14722V1.10584V1.06543V1.02599V0.987521V0.950026V0.913512V0.877983V0.843443V0.809897V0.77735V0.745805V0.715267V0.685741V0.65723V0.62974V0.603274V0.600079C4.67218 0.591423 4.95783 0.62268 5.37469 0.718165C6.28165 0.92591 7.60673 1.38746 9.23608 2.0396C12.4851 3.34 16.8471 5.35838 21.2844 7.47895C23.8714 8.71525 26.473 9.98092 28.8913 11.1574C30.6248 12.0008 32.2641 12.7983 33.7364 13.5064C35.4947 14.352 37.0121 15.0687 38.1542 15.5767C38.7246 15.8305 39.2074 16.0348 39.5825 16.1777C39.7698 16.249 39.9363 16.3074 40.0769 16.3491C40.2062 16.3875 40.3522 16.4241 40.4826 16.4287C40.6271 16.4337 40.7823 16.3982 40.9108 16.3619C41.0521 16.322 41.2163 16.2645 41.3979 16.1941C41.7618 16.0529 42.2255 15.8476 42.7694 15.5919C43.8587 15.0796 45.2995 14.3503 46.9643 13.4883C48.4599 12.7139 50.1265 11.8375 51.8871 10.9117C54.0721 9.76285 56.4018 8.53782 58.7293 7.33694C62.9168 5.1763 67.0263 3.1311 70.0845 1.84498C71.6198 1.19931 72.8595 0.758241 73.7018 0.582405C74.1065 0.497921 74.3624 0.487713 74.5 0.510179V0.519282V0.544433V0.570602V0.597788V0.625984V0.655187V0.685392V0.716596V0.748793V0.781979V0.816151V0.851303V0.887432V0.924533V0.962601V1.00163V1.04162V1.08257V1.12446V1.16731V1.21109V1.25581V1.30146V1.34805V1.39555V1.44398V1.49332V1.54358V1.59474V1.6468V1.69976V1.75362V1.80836V1.864V1.92051V1.9779V2.03616V2.09528V2.15528V2.21613V2.27784V2.34039V2.4038V2.46804V2.53312V2.59904V2.66579V2.73336V2.80174V2.87095V2.94097V3.01179V3.08342V3.15585V3.22907V3.30308V3.37787V3.45345V3.52981V3.60693V3.68483V3.76349V3.8429V3.92308V4.004V4.08567V4.16809V4.25124V4.33512V4.41974V4.50508V4.59114V4.67791V4.7654V4.85359V4.94249V5.03209V5.12238V5.21336V5.30503V5.39738V5.4904V5.5841V5.67847V5.7735V5.86919V5.96554V6.06254V6.16018V6.25847V6.3574V6.45696V6.55714V6.65796V6.75939V6.86144V6.96411V7.06738V7.17125V7.27573V7.3808V7.48645V7.5927V7.69953V7.80693V7.91491V8.02345V8.13256V8.24224V8.35246V8.46324V8.57456V8.68643V8.79884V8.91178V9.02525V9.13924V9.25376V9.36879V9.48434V9.60039V9.71695V9.834V9.95156V10.0696V10.1881V10.3071V10.4266V10.5466V10.667V10.7879V10.9093V11.0311V11.1533V11.2761V11.3992V11.5228V11.6468V11.7713V11.8962V12.0215V12.1472V12.2733V12.3999V12.5268V12.6542V12.7819V12.91V13.0386V13.1675V13.2967V13.4264V13.5564V13.6868V13.8175V13.9486V14.0801V14.2119V14.344V14.4765V14.6094V14.7425V14.876V15.0098V15.1439V15.2783V15.4131V15.5481V15.6834V15.8191V15.955V16.0912V16.2277V16.3645V16.5015V16.6389V16.7764V16.9143V17.0524V17.1907V17.3293V17.4682V17.6073V17.7466V17.8861V18.0259V18.1659V18.3061V18.4466V18.5872V18.728V18.8691V19.0103V19.1517V19.2934V19.4352V19.5771V19.7193V19.8616V20.0041V20.1467V20.2896V20.4325V20.5756V20.7189V20.8623V21.0058V21.1494V21.2932V21.4371V21.5811V21.7253V21.8695V22.0139V22.1583V22.3029V22.4475V22.5922V22.737V22.8819V23.0269V23.1719V23.317V23.4622V23.6074V23.7527V23.898V24.0433V24.1887V24.3342V24.4796V24.6251V24.7706V24.9162V25.0617V25.2073V25.3528V25.4984V25.644V25.7895V25.9351V26.0806V26.2261V26.3716V26.517V26.6624V26.8078V26.9531V27.0984V27.2436V27.3888V27.5339V27.679V27.824V27.9689V28.1137V28.2585V28.4031V28.5477V28.6922V28.8366V28.9809V29.125V29.2691V29.413V29.5569V29.7005V29.8441V29.9876V30.1308V30.274V30.417V30.5599V30.7026V30.8451V30.9875V31.1297V31.2717V31.4136V31.5553V31.6968V31.8381V31.9792V32.1201V32.2608V32.4013V32.5416V32.6816V32.8215V32.9611V33.1005V33.2397V33.3786V33.5173V33.6557V33.7939V33.9318V34.0695V34.2069V34.344V34.4809V34.6175V34.7538V34.8898V35.0256V35.161V35.2961V35.431V35.5655V35.6997V35.8336V35.9672V36.1005V36.2334V36.366V36.4982V36.6302V36.7617V36.893V37.0238V37.1543V37.2845V37.4142V37.5436V37.6727V37.8013V37.9296V38.0574V38.1849V38.312V38.4387V38.5649V38.6908V38.8162V38.9413V39.0659V39.19V39.3138V39.4371V39.5599V39.6823V39.8043V39.9258V40.0469V40.1674V40.2876V40.4072V40.5264V40.6451V40.7633V40.881V40.9982V41.1149V41.2311V41.3469V41.4621V41.5767V41.6909V41.8046V41.9177V42.0302V42.1423V42.2538V42.3648V42.4752V42.585V42.6943V42.803V42.9112V43.0188V43.1258V43.2323V43.3381V43.4434V43.548V43.6521V43.7556V43.8585V43.9607V44.0623V44.1634V44.2638V44.3635V44.4627V44.5612V44.659V44.7562V44.8528V44.9487V45.044V45.1385V45.2325V45.3257V45.4183V45.5102V45.6014V45.6919V45.7817V45.8709V45.9593V46.047V46.134V46.2203V46.3059V46.3907V46.4749V46.5583V46.6409V46.7228V46.804V46.8844V46.9641V47.043V47.1212V47.1985V47.2751V47.351V47.426V47.5003V47.5738V47.6465V47.7184V47.7895V47.8597V47.9292V47.9979V48.0657V48.1327V48.1989V48.2643V48.3288V48.3925V48.4553V48.5173V48.5784V48.6387V48.6981V48.7567V48.8144V48.8712V48.9271V48.9821V49.0363V49.0895V49.1419V49.1933V49.2439V49.2935V49.3423V49.3901V49.437V49.4829V49.528V49.572V49.6152V49.6574V49.6987V49.6993C74.1902 49.715 73.806 49.7976 73.3816 49.9175C72.4056 50.1934 71.0333 50.7217 69.4128 51.4145C66.1641 52.8035 61.8406 54.8872 57.5264 57.0443C53.21 59.2025 48.8944 61.4384 45.6585 63.1346C44.0404 63.9827 42.6919 64.696 41.7479 65.1973C41.2759 65.448 40.905 65.6457 40.652 65.7807L40.4935 65.8654L40.3153 65.7754C40.0477 65.6404 39.6553 65.4427 39.156 65.1921C38.1573 64.6908 36.7307 63.9775 35.0188 63.1294C31.5955 61.4333 27.03 59.1975 22.4636 57.0394C17.8995 54.8824 13.3263 52.7991 9.89046 51.4107C8.17627 50.718 6.72677 50.1906 5.6974 49.9156Z" fill="white" stroke="black"/>
<line x1="40.5" y1="16.429" x2="40.5" y2="65.429" stroke="black" stroke-width="3"/>
</g>
<defs>
<filter id="filter0_d_385_268" x="0" y="0" width="79" height="74.429" filterUnits="userSpaceOnUse" color-interpolation-filters="sRGB">
<feFlood flood-opacity="0" result="BackgroundImageFix"/>
<feColorMatrix in="SourceAlpha" type="matrix" values="0 0 0 0 0 0 0 0 0 0 0 0 0 0 0 0 0 0 127 0" result="hardAlpha"/>
<feOffset dy="4"/>
<feGaussianBlur stdDeviation="2"/>
<feComposite in2="hardAlpha" operator="out"/>
<feColorMatrix type="matrix" values="0 0 0 0 0 0 0 0 0 0 0 0 0 0 0 0 0 0 0.25 0"/>
<feBlend mode="normal" in2="BackgroundImageFix" result="effect1_dropShadow_385_268"/>
<feBlend mode="normal" in="SourceGraphic" in2="effect1_dropShadow_385_268" result="shape"/>
</filter>
</defs>
</svg>
