<svg width="236" height="255" viewBox="0 0 236 255" fill="none" xmlns="http://www.w3.org/2000/svg">
<rect x="89.2749" y="206.558" width="7.37627" height="46.1017" rx="3.68814" fill="black"/>
<path d="M92.7389 245.283V245.756L92.8645 246.212C93.3569 248 93.0936 248.734 92.9657 248.975C92.833 249.225 92.4725 249.65 91.3396 250.058C90.191 250.472 88.6136 250.732 86.6279 250.868C84.6647 251.002 82.534 251.003 80.3094 251.003C76.4143 251.003 73.0595 250.082 70.7989 248.774C68.4475 247.413 67.8799 246.054 67.8799 245.283C67.8799 244.512 68.4475 243.153 70.7989 241.792C73.0595 240.484 76.4143 239.563 80.3094 239.563C84.2045 239.563 87.5593 240.484 89.8199 241.792C92.1712 243.153 92.7389 244.512 92.7389 245.283Z" stroke="black" stroke-width="7"/>
<rect width="7.37627" height="46.1017" rx="3.68814" transform="matrix(-1 0 0 1 152.895 206.558)" fill="black"/>
<path d="M149.431 245.283V245.756L149.305 246.212C148.813 248 149.076 248.734 149.204 248.975C149.337 249.225 149.697 249.65 150.83 250.058C151.979 250.472 153.556 250.732 155.542 250.868C157.505 251.002 159.636 251.003 161.861 251.003C165.756 251.003 169.11 250.082 171.371 248.774C173.722 247.413 174.29 246.054 174.29 245.283C174.29 244.512 173.722 243.153 171.371 241.792C169.11 240.484 165.756 239.563 161.861 239.563C157.965 239.563 154.611 240.484 152.35 241.792C149.999 243.153 149.431 244.512 149.431 245.283Z" stroke="black" stroke-width="7"/>
<g filter="url(#filter0_d_435_230)">
<path d="M109.974 7.57603C114.859 3.69317 121.778 3.69317 126.664 7.57603C130.5 10.625 135.694 11.3389 140.211 9.43808C145.963 7.01738 152.625 8.88391 156.282 13.941C159.154 17.912 163.962 20.0007 168.825 19.389C175.017 18.61 180.928 22.2046 183.085 28.0608C184.779 32.6593 188.845 35.968 193.692 36.6908C199.865 37.6112 204.587 42.6674 205.084 48.8884C205.475 53.7733 208.498 58.0566 212.97 60.0603C218.665 62.6119 221.848 68.7546 220.649 74.8789C219.706 79.6881 221.462 84.6282 225.228 87.7642C230.024 91.7578 231.431 98.5314 228.624 104.105C226.419 108.482 226.777 113.712 229.557 117.748C233.097 122.887 232.625 129.789 228.418 134.399C225.114 138.018 224.048 143.152 225.636 147.788C227.658 153.692 225.341 160.21 220.047 163.514C215.889 166.108 213.477 170.763 213.755 175.655C214.11 181.886 210.12 187.538 204.131 189.291C199.427 190.667 195.849 194.498 194.797 199.285C193.457 205.38 188.091 209.746 181.85 209.817C176.95 209.873 172.47 212.598 170.166 216.923C167.232 222.431 160.886 225.187 154.858 223.572C150.124 222.304 145.076 223.718 141.69 227.261C137.379 231.773 130.525 232.715 125.156 229.534C120.94 227.036 115.697 227.036 111.481 229.534C106.112 232.715 99.2583 231.773 94.9468 227.261C91.5611 223.718 86.5127 222.304 81.7791 223.572C75.7508 225.187 69.4053 222.431 66.4709 216.923C64.1667 212.598 59.6872 209.873 54.7869 209.817C48.5465 209.746 43.1799 205.38 41.8404 199.285C40.7885 194.498 37.21 190.667 32.5066 189.291C26.5169 187.538 22.5273 181.886 22.8819 175.655C23.1604 170.763 20.7483 166.108 16.5906 163.514C11.2958 160.21 8.97899 153.692 11.0015 147.788C12.5897 143.152 11.523 138.018 8.21929 134.399C4.01206 129.789 3.53994 122.887 7.08033 117.748C9.86041 113.712 10.2182 108.482 8.01353 104.105C5.20593 98.5314 6.6135 91.7578 11.4092 87.7642C15.175 84.6282 16.9307 79.6881 15.9886 74.8789C14.7888 68.7546 17.9717 62.6119 23.667 60.0603C28.1392 58.0566 31.1627 53.7733 31.553 48.8884C32.0501 42.6674 36.7722 37.6112 42.9447 36.6908C47.7917 35.968 51.8586 32.6593 53.5524 28.0608C55.7095 22.2046 61.6206 18.61 67.8126 19.389C72.6748 20.0007 77.4836 17.912 80.3553 13.941C84.0123 8.88391 90.674 7.01738 96.4262 9.43808C100.943 11.3389 106.137 10.625 109.974 7.57603Z" fill="#99B7F0"/>
</g>
<circle cx="9.68136" cy="9.68136" r="9.68136" transform="matrix(1 0 0 -1 61.6133 96.8356)" fill="black"/>
<circle cx="9.68136" cy="9.68136" r="9.68136" transform="matrix(1 0 0 -1 152.895 96.8356)" fill="black"/>
<path d="M162.115 109.785C165.803 116.659 145.54 119.278 119.241 119.278C91.1186 119.278 71.2946 115.276 76.3661 109.785C74.9829 104.673 84.6644 111.901 119.241 111.901C151.973 111.901 160.115 106.056 162.115 109.785Z" fill="black"/>
<defs>
<filter id="filter0_d_435_230" x="4.71289" y="4.66388" width="227.211" height="232.744" filterUnits="userSpaceOnUse" color-interpolation-filters="sRGB">
<feFlood flood-opacity="0" result="BackgroundImageFix"/>
<feColorMatrix in="SourceAlpha" type="matrix" values="0 0 0 0 0 0 0 0 0 0 0 0 0 0 0 0 0 0 127 0" result="hardAlpha"/>
<feOffset dy="6"/>
<feComposite in2="hardAlpha" operator="out"/>
<feColorMatrix type="matrix" values="0 0 0 0 0.428369 0 0 0 0 0.509373 0 0 0 0 0.663281 0 0 0 1 0"/>
<feBlend mode="normal" in2="BackgroundImageFix" result="effect1_dropShadow_435_230"/>
<feBlend mode="normal" in="SourceGraphic" in2="effect1_dropShadow_435_230" result="shape"/>
</filter>
</defs>
</svg>
