<svg width="1588" height="830" viewBox="0 0 1588 830" fill="none" xmlns="http://www.w3.org/2000/svg">
<path d="M478.311 98.4341V329.405C478.311 404.845 459.934 459.1 423.181 492.171C386.945 524.724 325.603 541 239.156 541C156.849 541 96.2836 523.431 57.4597 488.295C19.1532 453.159 0 400.195 0 329.405V98.4341C0 71.0486 8.02357 48.8295 24.0708 31.778C40.6357 14.2094 61.3421 5.42554 86.1894 5.42554C116.731 5.42554 139.766 11.1091 155.296 22.4771C171.343 33.8451 179.367 56.8383 179.367 91.4585V344.132C179.884 360.666 182.473 373.843 187.132 383.66C192.307 393.478 199.037 400.454 207.32 404.587C215.602 408.205 226.214 410.013 239.156 410.013C252.096 410.013 262.708 408.463 270.991 405.362C279.273 402.262 285.226 397.354 288.85 390.636C292.991 383.919 295.579 377.202 296.615 370.484C298.168 363.767 298.944 354.983 298.944 344.132V90.6834C298.944 73.1148 301.014 58.3884 305.156 46.5043C309.815 34.6202 316.544 25.8354 325.345 20.1519C334.662 14.4684 343.98 10.593 353.298 8.52583C363.133 6.45865 374.78 5.42554 388.239 5.42554C418.263 5.42554 440.78 12.6592 455.793 27.1275C470.805 41.5959 478.311 65.3641 478.311 98.4341Z" fill="#FF717F"/>
<path d="M817.092 327.855C817.092 298.92 805.703 284.451 782.927 284.451C772.056 284.451 762.997 289.102 755.75 298.403C749.02 307.186 745.138 319.071 744.103 334.056V453.417C744.103 484.937 737.633 506.639 724.691 518.523C711.749 530.407 688.973 536.35 656.361 536.35C625.82 536.35 604.855 529.374 593.466 515.423C582.596 500.954 577.16 477.444 577.16 444.891V254.223C577.16 227.871 584.148 206.686 598.125 190.668C612.62 174.649 631.772 166.64 655.584 166.64C675.255 166.64 691.82 169.483 705.279 175.166C718.738 180.85 728.832 190.668 735.562 204.619C775.939 178.266 825.115 165.09 883.093 165.09C919.843 165.09 946.251 179.559 962.29 208.494C978.857 237.43 987.141 284.968 987.141 351.107C987.141 383.66 986.362 410.271 984.815 430.94C983.258 451.092 980.673 468.66 977.05 483.645C973.937 498.113 968.767 508.964 961.521 516.198C954.265 523.431 945.732 528.599 935.891 531.699C926.579 534.799 914.41 536.35 899.399 536.35C870.41 536.35 849.446 530.924 836.504 520.073C824.08 509.222 817.868 493.204 817.868 472.019L817.092 327.855Z" fill="#FFCD59"/>
<path d="M1070.39 58.9055C1070.39 41.8539 1077.64 27.9026 1092.13 17.0516C1107.14 5.68355 1128.11 0 1155.03 0C1211.44 0 1239.66 19.6348 1239.66 58.9055C1239.66 80.6075 1232.41 95.8509 1217.92 104.635C1203.94 113.419 1182.98 117.811 1155.03 117.811C1130.69 117.811 1110.5 113.16 1094.45 103.86C1078.42 94.5588 1070.39 79.5744 1070.39 58.9055ZM1238.88 453.417C1238.88 484.42 1232.41 506.122 1219.47 518.523C1206.53 530.407 1183.75 536.35 1151.14 536.35C1120.6 536.35 1099.63 529.374 1088.25 515.423C1077.38 500.954 1071.94 477.444 1071.94 444.891V254.223C1071.94 227.871 1078.92 206.686 1092.91 190.668C1107.4 174.649 1126.55 166.64 1150.36 166.64C1178.32 166.64 1200.06 172.841 1215.59 185.242C1231.12 197.126 1238.88 219.345 1238.88 251.898V453.417Z" fill="#9ED4A3"/>
<path d="M1322.5 58.9055C1322.5 41.8539 1329.75 27.9026 1344.24 17.0516C1359.25 5.68355 1380.22 0 1407.14 0C1463.56 0 1491.77 19.6348 1491.77 58.9055C1491.77 80.6075 1484.53 95.8509 1470.03 104.635C1456.05 113.419 1435.09 117.811 1407.14 117.811C1382.81 117.811 1362.62 113.16 1346.57 103.86C1330.52 94.5588 1322.5 79.5743 1322.5 58.9055ZM1491 453.417C1491 484.42 1484.53 506.122 1471.58 518.523C1458.64 530.407 1435.86 536.35 1403.26 536.35C1372.71 536.35 1351.75 529.374 1340.36 515.423C1329.49 500.954 1324.05 477.444 1324.05 444.891V254.224C1324.05 227.871 1331.04 206.686 1345.02 190.668C1359.51 174.649 1378.67 166.64 1402.48 166.64C1430.43 166.64 1452.17 172.841 1467.7 185.242C1483.23 197.126 1491 219.345 1491 251.898V453.417Z" fill="#88C5FF"/>
<path fill-rule="evenodd" clip-rule="evenodd" d="M1042 554C1069.61 554 1092 576.386 1092 604C1092 632.117 1107.98 662.415 1143.57 687.675C1179.05 712.855 1230.67 730 1290 730C1349.33 730 1400.95 712.855 1436.43 687.675C1472.02 662.415 1488 632.117 1488 604C1488 576.386 1510.39 554 1538 554C1565.61 554 1588 576.386 1588 604C1588 673.085 1548.46 730.787 1494.3 769.226C1440.02 807.746 1367.63 830 1290 830C1212.37 830 1139.98 807.746 1085.7 769.226C1031.54 730.787 992 673.085 992 604C992 576.386 1014.39 554 1042 554Z" fill="#FFA370"/>
</svg>
